<svg width="20" height="20" viewBox="0 0 20 20" fill="none" xmlns="http://www.w3.org/2000/svg">
<g clip-path="url(#clip0_231_1497)">
<path d="M9.22828 2.19416C9.49494 1.49082 10.5041 1.49082 10.7716 2.19416L12.4966 6.97249C12.5568 7.12815 12.6628 7.26189 12.8005 7.35607C12.9383 7.45025 13.1014 7.50043 13.2683 7.49999H17.5074C18.2908 7.49999 18.6324 8.47499 18.0166 8.95249L14.9999 11.6667C14.865 11.7707 14.7664 11.9147 14.7182 12.0781C14.67 12.2416 14.6747 12.4161 14.7316 12.5767L15.8333 17.2458C16.1016 17.9958 15.2333 18.64 14.5766 18.1783L10.4791 15.5783C10.3388 15.4797 10.1715 15.4268 9.99994 15.4268C9.82843 15.4268 9.6611 15.4797 9.52078 15.5783L5.42328 18.1783C4.76744 18.64 3.89828 17.995 4.16661 17.2458L5.26828 12.5767C5.32516 12.4161 5.32985 12.2416 5.28166 12.0781C5.23347 11.9147 5.13487 11.7707 4.99994 11.6667L1.98328 8.95249C1.36661 8.47499 1.70994 7.49999 2.49161 7.49999H6.73078C6.89766 7.50043 7.06075 7.45025 7.19852 7.35607C7.33629 7.26189 7.44226 7.12815 7.50244 6.97249L9.22828 2.19416Z" stroke="#837E7B" stroke-width="2" stroke-linecap="round" stroke-linejoin="round"/>
</g>
<defs>
<clipPath id="clip0_231_1497">
<rect width="20" height="20" fill="white"/>
</clipPath>
</defs>
</svg>
